<svg width="15" height="27" viewBox="0 0 15 27" fill="none" xmlns="http://www.w3.org/2000/svg">
<path d="M5 9.5V3.5C5 2.39543 5.89543 1.5 7 1.5H13.3772C13.4564 1.5 13.5331 1.52835 13.5932 1.57992C14.7633 2.58279 14.054 4.5 12.513 4.5H8.5V9.5H11C11.8284 9.5 12.5 10.1716 12.5 11C12.5 11.8284 11.8284 12.5 11 12.5H8.5V23.75C8.5 24.7165 7.7165 25.5 6.75 25.5C5.7835 25.5 5 24.7165 5 23.75V12.5H3C2.17157 12.5 1.5 11.8284 1.5 11C1.5 10.1716 2.17157 9.5 3 9.5H5Z" stroke="black" stroke-width="1.5"/>
</svg>
