<svg width="130" height="53" viewBox="0 0 130 53" fill="none" xmlns="http://www.w3.org/2000/svg">
<circle cx="26.5" cy="26.5" r="25.5" stroke="#070000" stroke-width="2"/>
<path d="M1 22H29" stroke="#070000" stroke-width="2"/>
<path d="M32 26.5L17.5 2.5" stroke="#070000" stroke-width="2"/>
<path d="M29.5 31H52" stroke="#070000" stroke-width="2"/>
<path d="M29.5 30.5L43.5 8" stroke="#070000" stroke-width="2"/>
<path d="M29.3243 22H23.6757L21 26.5L23.6757 31H29.3243L32 26.5L29.3243 22Z" stroke="#070000" stroke-width="2"/>
<path d="M21 26.5L35 50.5" stroke="#070000" stroke-width="2"/>
<path d="M21 26.5L8.5 45" stroke="#070000" stroke-width="2"/>
<path d="M65.118 21.65V25.16C64.678 25.484 64.208 25.722 63.708 25.874C63.212 26.022 62.68 26.096 62.112 26.096C61.404 26.096 60.762 25.986 60.186 25.766C59.614 25.546 59.124 25.24 58.716 24.848C58.312 24.456 58 23.988 57.78 23.444C57.56 22.9 57.45 22.306 57.45 21.662C57.45 21.01 57.556 20.412 57.768 19.868C57.98 19.324 58.28 18.856 58.668 18.464C59.06 18.072 59.534 17.768 60.09 17.552C60.646 17.336 61.27 17.228 61.962 17.228C62.314 17.228 62.642 17.256 62.946 17.312C63.254 17.368 63.538 17.446 63.798 17.546C64.062 17.642 64.302 17.76 64.518 17.9C64.734 18.04 64.932 18.194 65.112 18.362L64.65 19.094C64.578 19.21 64.484 19.282 64.368 19.31C64.252 19.334 64.126 19.304 63.99 19.22C63.858 19.144 63.726 19.068 63.594 18.992C63.462 18.916 63.314 18.85 63.15 18.794C62.99 18.738 62.808 18.692 62.604 18.656C62.404 18.62 62.172 18.602 61.908 18.602C61.48 18.602 61.092 18.674 60.744 18.818C60.4 18.962 60.106 19.168 59.862 19.436C59.618 19.704 59.43 20.026 59.298 20.402C59.166 20.778 59.1 21.198 59.1 21.662C59.1 22.158 59.17 22.602 59.31 22.994C59.454 23.382 59.654 23.712 59.91 23.984C60.17 24.252 60.482 24.458 60.846 24.602C61.21 24.742 61.616 24.812 62.064 24.812C62.384 24.812 62.67 24.778 62.922 24.71C63.174 24.642 63.42 24.55 63.66 24.434V22.862H62.568C62.464 22.862 62.382 22.834 62.322 22.778C62.266 22.718 62.238 22.646 62.238 22.562V21.65H65.118ZM69.295 21.452C69.599 21.452 69.863 21.414 70.087 21.338C70.315 21.262 70.501 21.158 70.645 21.026C70.793 20.89 70.903 20.73 70.975 20.546C71.047 20.362 71.083 20.16 71.083 19.94C71.083 19.5 70.937 19.162 70.645 18.926C70.357 18.69 69.915 18.572 69.319 18.572H68.287V21.452H69.295ZM73.447 26H71.989C71.713 26 71.513 25.892 71.389 25.676L69.565 22.898C69.497 22.794 69.421 22.72 69.337 22.676C69.257 22.632 69.137 22.61 68.977 22.61H68.287V26H66.673V17.324H69.319C69.907 17.324 70.411 17.386 70.831 17.51C71.255 17.63 71.601 17.8 71.869 18.02C72.141 18.24 72.341 18.504 72.469 18.812C72.597 19.116 72.661 19.452 72.661 19.82C72.661 20.112 72.617 20.388 72.529 20.648C72.445 20.908 72.321 21.144 72.157 21.356C71.997 21.568 71.797 21.754 71.557 21.914C71.321 22.074 71.051 22.2 70.747 22.292C70.851 22.352 70.947 22.424 71.035 22.508C71.123 22.588 71.203 22.684 71.275 22.796L73.447 26ZM81.4188 21.65V25.16C80.9788 25.484 80.5088 25.722 80.0088 25.874C79.5128 26.022 78.9808 26.096 78.4128 26.096C77.7048 26.096 77.0628 25.986 76.4868 25.766C75.9148 25.546 75.4248 25.24 75.0168 24.848C74.6128 24.456 74.3008 23.988 74.0808 23.444C73.8608 22.9 73.7508 22.306 73.7508 21.662C73.7508 21.01 73.8568 20.412 74.0688 19.868C74.2808 19.324 74.5808 18.856 74.9688 18.464C75.3608 18.072 75.8348 17.768 76.3908 17.552C76.9468 17.336 77.5708 17.228 78.2628 17.228C78.6148 17.228 78.9428 17.256 79.2468 17.312C79.5548 17.368 79.8388 17.446 80.0988 17.546C80.3628 17.642 80.6028 17.76 80.8188 17.9C81.0348 18.04 81.2328 18.194 81.4128 18.362L80.9508 19.094C80.8788 19.21 80.7848 19.282 80.6688 19.31C80.5528 19.334 80.4268 19.304 80.2908 19.22C80.1588 19.144 80.0268 19.068 79.8948 18.992C79.7628 18.916 79.6148 18.85 79.4508 18.794C79.2908 18.738 79.1088 18.692 78.9048 18.656C78.7048 18.62 78.4728 18.602 78.2088 18.602C77.7808 18.602 77.3928 18.674 77.0448 18.818C76.7008 18.962 76.4068 19.168 76.1628 19.436C75.9188 19.704 75.7308 20.026 75.5988 20.402C75.4668 20.778 75.4008 21.198 75.4008 21.662C75.4008 22.158 75.4708 22.602 75.6108 22.994C75.7548 23.382 75.9548 23.712 76.2108 23.984C76.4708 24.252 76.7828 24.458 77.1468 24.602C77.5108 24.742 77.9168 24.812 78.3648 24.812C78.6848 24.812 78.9708 24.778 79.2228 24.71C79.4748 24.642 79.7208 24.55 79.9608 24.434V22.862H78.8688C78.7648 22.862 78.6828 22.834 78.6228 22.778C78.5668 22.718 78.5388 22.646 78.5388 22.562V21.65H81.4188ZM86.4658 24.698C86.7778 24.698 87.0558 24.646 87.2998 24.542C87.5478 24.438 87.7558 24.292 87.9238 24.104C88.0918 23.916 88.2198 23.688 88.3078 23.42C88.3998 23.152 88.4458 22.852 88.4458 22.52V17.324H90.0598V22.52C90.0598 23.036 89.9758 23.514 89.8078 23.954C89.6438 24.39 89.4058 24.768 89.0938 25.088C88.7858 25.404 88.4098 25.652 87.9658 25.832C87.5218 26.008 87.0218 26.096 86.4658 26.096C85.9058 26.096 85.4038 26.008 84.9598 25.832C84.5158 25.652 84.1378 25.404 83.8258 25.088C83.5178 24.768 83.2798 24.39 83.1118 23.954C82.9478 23.514 82.8658 23.036 82.8658 22.52V17.324H84.4798V22.514C84.4798 22.846 84.5238 23.146 84.6118 23.414C84.7038 23.682 84.8338 23.912 85.0018 24.104C85.1738 24.292 85.3818 24.438 85.6258 24.542C85.8738 24.646 86.1538 24.698 86.4658 24.698ZM94.5021 21.452C94.8061 21.452 95.0701 21.414 95.2941 21.338C95.5221 21.262 95.7081 21.158 95.8521 21.026C96.0001 20.89 96.1101 20.73 96.1821 20.546C96.2541 20.362 96.2901 20.16 96.2901 19.94C96.2901 19.5 96.1441 19.162 95.8521 18.926C95.5641 18.69 95.1221 18.572 94.5261 18.572H93.4941V21.452H94.5021ZM98.6541 26H97.1961C96.9201 26 96.7201 25.892 96.5961 25.676L94.7721 22.898C94.7041 22.794 94.6281 22.72 94.5441 22.676C94.4641 22.632 94.3441 22.61 94.1841 22.61H93.4941V26H91.8801V17.324H94.5261C95.1141 17.324 95.6181 17.386 96.0381 17.51C96.4621 17.63 96.8081 17.8 97.0761 18.02C97.3481 18.24 97.5481 18.504 97.6761 18.812C97.8041 19.116 97.8681 19.452 97.8681 19.82C97.8681 20.112 97.8241 20.388 97.7361 20.648C97.6521 20.908 97.5281 21.144 97.3641 21.356C97.2041 21.568 97.0041 21.754 96.7641 21.914C96.5281 22.074 96.2581 22.2 95.9541 22.292C96.0581 22.352 96.1541 22.424 96.2421 22.508C96.3301 22.588 96.4101 22.684 96.4821 22.796L98.6541 26ZM58.724 31.072V32.784H60.892V33.644H58.724V36H57.644V30.216H61.292V31.072H58.724ZM63.4759 31.832C63.7799 31.832 64.0559 31.8813 64.3039 31.98C64.5545 32.0787 64.7679 32.2187 64.9439 32.4C65.1225 32.5813 65.2599 32.8027 65.3559 33.064C65.4519 33.3253 65.4999 33.6173 65.4999 33.94C65.4999 34.2653 65.4519 34.5587 65.3559 34.82C65.2599 35.0813 65.1225 35.304 64.9439 35.488C64.7679 35.672 64.5545 35.8133 64.3039 35.912C64.0559 36.0107 63.7799 36.06 63.4759 36.06C63.1692 36.06 62.8905 36.0107 62.6399 35.912C62.3892 35.8133 62.1745 35.672 61.9959 35.488C61.8199 35.304 61.6825 35.0813 61.5839 34.82C61.4879 34.5587 61.4399 34.2653 61.4399 33.94C61.4399 33.6173 61.4879 33.3253 61.5839 33.064C61.6825 32.8027 61.8199 32.5813 61.9959 32.4C62.1745 32.2187 62.3892 32.0787 62.6399 31.98C62.8905 31.8813 63.1692 31.832 63.4759 31.832ZM63.4759 35.3C63.8172 35.3 64.0692 35.1853 64.2319 34.956C64.3972 34.7267 64.4799 34.3907 64.4799 33.948C64.4799 33.5053 64.3972 33.168 64.2319 32.936C64.0692 32.704 63.8172 32.588 63.4759 32.588C63.1292 32.588 62.8719 32.7053 62.7039 32.94C62.5385 33.172 62.4559 33.508 62.4559 33.948C62.4559 34.388 62.5385 34.724 62.7039 34.956C62.8719 35.1853 63.1292 35.3 63.4759 35.3ZM67.5435 36.064C67.1862 36.064 66.9115 35.964 66.7195 35.764C66.5302 35.5613 66.4355 35.2827 66.4355 34.928V32.636H66.0155C65.9622 32.636 65.9168 32.6187 65.8795 32.584C65.8422 32.5493 65.8235 32.4973 65.8235 32.428V32.036L66.4835 31.928L66.6915 30.808C66.7048 30.7547 66.7302 30.7133 66.7675 30.684C66.8048 30.6547 66.8528 30.64 66.9115 30.64H67.4235V31.932H68.5195V32.636H67.4235V34.86C67.4235 34.988 67.4542 35.088 67.5155 35.16C67.5795 35.232 67.6662 35.268 67.7755 35.268C67.8368 35.268 67.8875 35.2613 67.9275 35.248C67.9702 35.232 68.0062 35.216 68.0355 35.2C68.0675 35.184 68.0955 35.1693 68.1195 35.156C68.1435 35.14 68.1675 35.132 68.1915 35.132C68.2208 35.132 68.2448 35.14 68.2635 35.156C68.2822 35.1693 68.3022 35.1907 68.3235 35.22L68.6195 35.7C68.4755 35.82 68.3102 35.9107 68.1235 35.972C67.9368 36.0333 67.7435 36.064 67.5435 36.064ZM70.9368 31.832C71.2408 31.832 71.5168 31.8813 71.7648 31.98C72.0155 32.0787 72.2288 32.2187 72.4048 32.4C72.5835 32.5813 72.7208 32.8027 72.8168 33.064C72.9128 33.3253 72.9608 33.6173 72.9608 33.94C72.9608 34.2653 72.9128 34.5587 72.8168 34.82C72.7208 35.0813 72.5835 35.304 72.4048 35.488C72.2288 35.672 72.0155 35.8133 71.7648 35.912C71.5168 36.0107 71.2408 36.06 70.9368 36.06C70.6301 36.06 70.3515 36.0107 70.1008 35.912C69.8501 35.8133 69.6355 35.672 69.4568 35.488C69.2808 35.304 69.1435 35.0813 69.0448 34.82C68.9488 34.5587 68.9008 34.2653 68.9008 33.94C68.9008 33.6173 68.9488 33.3253 69.0448 33.064C69.1435 32.8027 69.2808 32.5813 69.4568 32.4C69.6355 32.2187 69.8501 32.0787 70.1008 31.98C70.3515 31.8813 70.6301 31.832 70.9368 31.832ZM70.9368 35.3C71.2781 35.3 71.5301 35.1853 71.6928 34.956C71.8581 34.7267 71.9408 34.3907 71.9408 33.948C71.9408 33.5053 71.8581 33.168 71.6928 32.936C71.5301 32.704 71.2781 32.588 70.9368 32.588C70.5901 32.588 70.3328 32.7053 70.1648 32.94C69.9995 33.172 69.9168 33.508 69.9168 33.948C69.9168 34.388 69.9995 34.724 70.1648 34.956C70.3328 35.1853 70.5901 35.3 70.9368 35.3ZM75.1833 33.848C75.306 33.848 75.4126 33.832 75.5033 33.8C75.594 33.7653 75.6686 33.7187 75.7273 33.66C75.7886 33.6013 75.834 33.5307 75.8633 33.448C75.8953 33.3653 75.9113 33.2747 75.9113 33.176C75.9113 32.9733 75.85 32.8133 75.7273 32.696C75.6073 32.576 75.426 32.516 75.1833 32.516C74.9406 32.516 74.758 32.576 74.6353 32.696C74.5153 32.8133 74.4553 32.9733 74.4553 33.176C74.4553 33.272 74.47 33.3613 74.4993 33.444C74.5313 33.5267 74.5766 33.5987 74.6353 33.66C74.6966 33.7187 74.7726 33.7653 74.8633 33.8C74.9566 33.832 75.0633 33.848 75.1833 33.848ZM76.2993 36.184C76.2993 36.104 76.2753 36.0387 76.2273 35.988C76.1793 35.9373 76.114 35.8987 76.0313 35.872C75.9486 35.8427 75.8513 35.8213 75.7393 35.808C75.63 35.7947 75.5126 35.7853 75.3873 35.78C75.2646 35.772 75.1366 35.7653 75.0033 35.76C74.8726 35.7547 74.7446 35.744 74.6193 35.728C74.51 35.7893 74.4206 35.8613 74.3513 35.944C74.2846 36.0267 74.2513 36.1227 74.2513 36.232C74.2513 36.304 74.2686 36.3707 74.3033 36.432C74.3406 36.496 74.398 36.5507 74.4753 36.596C74.5553 36.6413 74.658 36.676 74.7833 36.7C74.9086 36.7267 75.062 36.74 75.2433 36.74C75.4273 36.74 75.586 36.7253 75.7193 36.696C75.8526 36.6693 75.962 36.6307 76.0473 36.58C76.1353 36.532 76.1993 36.4733 76.2393 36.404C76.2793 36.3373 76.2993 36.264 76.2993 36.184ZM77.2833 32.036V32.404C77.2833 32.5213 77.2126 32.5933 77.0713 32.62L76.7033 32.688C76.7593 32.8293 76.7873 32.984 76.7873 33.152C76.7873 33.3547 76.746 33.5387 76.6633 33.704C76.5833 33.8667 76.4713 34.0053 76.3273 34.12C76.1833 34.2347 76.0126 34.324 75.8153 34.388C75.6206 34.4493 75.41 34.48 75.1833 34.48C75.1033 34.48 75.026 34.476 74.9513 34.468C74.8766 34.46 74.8033 34.4493 74.7313 34.436C74.6033 34.5133 74.5393 34.6 74.5393 34.696C74.5393 34.7787 74.5766 34.84 74.6513 34.88C74.7286 34.9173 74.83 34.944 74.9553 34.96C75.0806 34.976 75.2233 34.9867 75.3833 34.992C75.5433 34.9947 75.7073 35.0027 75.8753 35.016C76.0433 35.0293 76.2073 35.0533 76.3673 35.088C76.5273 35.12 76.67 35.172 76.7953 35.244C76.9206 35.316 77.0206 35.4147 77.0953 35.54C77.1726 35.6627 77.2113 35.8213 77.2113 36.016C77.2113 36.1973 77.166 36.3733 77.0753 36.544C76.9873 36.7147 76.858 36.8667 76.6873 37C76.5193 37.1333 76.3113 37.24 76.0633 37.32C75.818 37.4027 75.538 37.444 75.2233 37.444C74.914 37.444 74.6446 37.4133 74.4153 37.352C74.186 37.2933 73.9953 37.2133 73.8433 37.112C73.6913 37.0133 73.578 36.8987 73.5033 36.768C73.4286 36.6373 73.3913 36.5013 73.3913 36.36C73.3913 36.168 73.4486 36.008 73.5633 35.88C73.6806 35.7493 73.8406 35.6453 74.0433 35.568C73.934 35.512 73.8473 35.4373 73.7833 35.344C73.7193 35.2507 73.6873 35.128 73.6873 34.976C73.6873 34.9147 73.698 34.852 73.7193 34.788C73.7433 34.7213 73.7766 34.656 73.8193 34.592C73.8646 34.528 73.9206 34.468 73.9873 34.412C74.054 34.3533 74.1326 34.3013 74.2233 34.256C74.0153 34.144 73.8513 33.9947 73.7313 33.808C73.614 33.6213 73.5553 33.4027 73.5553 33.152C73.5553 32.9493 73.5953 32.7667 73.6753 32.604C73.758 32.4387 73.8713 32.2987 74.0153 32.184C74.162 32.0667 74.334 31.9773 74.5313 31.916C74.7313 31.8547 74.9486 31.824 75.1833 31.824C75.3593 31.824 75.5246 31.8427 75.6793 31.88C75.834 31.9147 75.9753 31.9667 76.1033 32.036H77.2833ZM78.8419 32.608C78.9699 32.3627 79.1219 32.1707 79.2979 32.032C79.4739 31.8907 79.6819 31.82 79.9219 31.82C80.1112 31.82 80.2632 31.8613 80.3779 31.944L80.3139 32.684C80.3005 32.732 80.2805 32.7667 80.2539 32.788C80.2299 32.8067 80.1965 32.816 80.1539 32.816C80.1139 32.816 80.0539 32.8093 79.9739 32.796C79.8965 32.7827 79.8205 32.776 79.7459 32.776C79.6365 32.776 79.5392 32.792 79.4539 32.824C79.3685 32.856 79.2912 32.9027 79.2219 32.964C79.1552 33.0227 79.0952 33.0947 79.0419 33.18C78.9912 33.2653 78.9432 33.3627 78.8979 33.472V36H77.9099V31.896H78.4899C78.5912 31.896 78.6619 31.9147 78.7019 31.952C78.7419 31.9867 78.7685 32.0507 78.7819 32.144L78.8419 32.608ZM83.0076 34.248C82.7222 34.2613 82.4822 34.2867 82.2876 34.324C82.0929 34.3587 81.9369 34.404 81.8196 34.46C81.7022 34.516 81.6182 34.5813 81.5676 34.656C81.5169 34.7307 81.4916 34.812 81.4916 34.9C81.4916 35.0733 81.5422 35.1973 81.6436 35.272C81.7476 35.3467 81.8822 35.384 82.0476 35.384C82.2502 35.384 82.4249 35.348 82.5716 35.276C82.7209 35.2013 82.8662 35.0893 83.0076 34.94V34.248ZM80.7436 32.468C81.2156 32.036 81.7836 31.82 82.4476 31.82C82.6876 31.82 82.9022 31.86 83.0916 31.94C83.2809 32.0173 83.4409 32.1267 83.5716 32.268C83.7022 32.4067 83.8009 32.5733 83.8676 32.768C83.9369 32.9627 83.9716 33.176 83.9716 33.408V36H83.5236C83.4302 36 83.3582 35.9867 83.3076 35.96C83.2569 35.9307 83.2169 35.8733 83.1876 35.788L83.0996 35.492C82.9956 35.5853 82.8942 35.668 82.7956 35.74C82.6969 35.8093 82.5942 35.868 82.4876 35.916C82.3809 35.964 82.2662 36 82.1436 36.024C82.0236 36.0507 81.8902 36.064 81.7436 36.064C81.5702 36.064 81.4102 36.0413 81.2636 35.996C81.1169 35.948 80.9902 35.8773 80.8836 35.784C80.7769 35.6907 80.6942 35.5747 80.6356 35.436C80.5769 35.2973 80.5476 35.136 80.5476 34.952C80.5476 34.848 80.5649 34.7453 80.5996 34.644C80.6342 34.54 80.6902 34.4413 80.7676 34.348C80.8476 34.2547 80.9502 34.1667 81.0756 34.084C81.2009 34.0013 81.3542 33.9293 81.5356 33.868C81.7196 33.8067 81.9329 33.7573 82.1756 33.72C82.4182 33.68 82.6956 33.656 83.0076 33.648V33.408C83.0076 33.1333 82.9489 32.9307 82.8316 32.8C82.7142 32.6667 82.5449 32.6 82.3236 32.6C82.1636 32.6 82.0302 32.6187 81.9236 32.656C81.8196 32.6933 81.7276 32.736 81.6476 32.784C81.5676 32.8293 81.4942 32.8707 81.4276 32.908C81.3636 32.9453 81.2916 32.964 81.2116 32.964C81.1422 32.964 81.0836 32.9467 81.0356 32.912C80.9876 32.8747 80.9489 32.832 80.9196 32.784L80.7436 32.468ZM87.4061 32.696C87.3794 32.7387 87.3514 32.7693 87.3221 32.788C87.2927 32.804 87.2554 32.812 87.2101 32.812C87.1621 32.812 87.1101 32.7987 87.0541 32.772C87.0007 32.7453 86.9381 32.716 86.8661 32.684C86.7941 32.6493 86.7114 32.6187 86.6181 32.592C86.5274 32.5653 86.4194 32.552 86.2941 32.552C86.0994 32.552 85.9461 32.5933 85.8341 32.676C85.7247 32.7587 85.6701 32.8667 85.6701 33C85.6701 33.088 85.6981 33.1627 85.7541 33.224C85.8127 33.2827 85.8887 33.3347 85.9821 33.38C86.0781 33.4253 86.1861 33.4667 86.3061 33.504C86.4261 33.5387 86.5474 33.5773 86.6701 33.62C86.7954 33.6627 86.9181 33.712 87.0381 33.768C87.1581 33.8213 87.2647 33.8907 87.3581 33.976C87.4541 34.0587 87.5301 34.1587 87.5861 34.276C87.6447 34.3933 87.6741 34.5347 87.6741 34.7C87.6741 34.8973 87.6381 35.08 87.5661 35.248C87.4967 35.4133 87.3927 35.5573 87.2541 35.68C87.1154 35.8 86.9434 35.8947 86.7381 35.964C86.5354 36.0307 86.3007 36.064 86.0341 36.064C85.8927 36.064 85.7541 36.0507 85.6181 36.024C85.4847 36 85.3554 35.9653 85.2301 35.92C85.1074 35.8747 84.9927 35.8213 84.8861 35.76C84.7821 35.6987 84.6901 35.632 84.6101 35.56L84.8381 35.184C84.8674 35.1387 84.9021 35.104 84.9421 35.08C84.9821 35.056 85.0327 35.044 85.0941 35.044C85.1554 35.044 85.2127 35.0613 85.2661 35.096C85.3221 35.1307 85.3861 35.168 85.4581 35.208C85.5301 35.248 85.6141 35.2853 85.7101 35.32C85.8087 35.3547 85.9327 35.372 86.0821 35.372C86.1994 35.372 86.2994 35.3587 86.3821 35.332C86.4674 35.3027 86.5367 35.2653 86.5901 35.22C86.6461 35.1747 86.6861 35.1227 86.7101 35.064C86.7367 35.0027 86.7501 34.94 86.7501 34.876C86.7501 34.78 86.7207 34.7013 86.6621 34.64C86.6061 34.5787 86.5301 34.5253 86.4341 34.48C86.3407 34.4347 86.2327 34.3947 86.1101 34.36C85.9901 34.3227 85.8661 34.2827 85.7381 34.24C85.6127 34.1973 85.4887 34.148 85.3661 34.092C85.2461 34.0333 85.1381 33.96 85.0421 33.872C84.9487 33.784 84.8727 33.676 84.8141 33.548C84.7581 33.42 84.7301 33.2653 84.7301 33.084C84.7301 32.916 84.7634 32.756 84.8301 32.604C84.8967 32.452 84.9941 32.32 85.1221 32.208C85.2527 32.0933 85.4141 32.0027 85.6061 31.936C85.8007 31.8667 86.0247 31.832 86.2781 31.832C86.5607 31.832 86.8181 31.8787 87.0501 31.972C87.2821 32.0653 87.4754 32.188 87.6301 32.34L87.4061 32.696ZM89.4057 30.056V33.46H89.5897C89.6564 33.46 89.7084 33.452 89.7457 33.436C89.7857 33.4173 89.8257 33.3813 89.8657 33.328L90.8857 32.068C90.9284 32.012 90.975 31.9693 91.0257 31.94C91.079 31.9107 91.147 31.896 91.2297 31.896H92.1337L90.8577 33.42C90.767 33.54 90.6684 33.632 90.5617 33.696C90.6177 33.736 90.667 33.7827 90.7097 33.836C90.755 33.8893 90.7977 33.9467 90.8377 34.008L92.2057 36H91.3137C91.2364 36 91.1697 35.988 91.1137 35.964C91.0577 35.9373 91.011 35.8907 90.9737 35.824L89.9257 34.268C89.8884 34.2067 89.8497 34.1667 89.8097 34.148C89.7697 34.1293 89.7097 34.12 89.6297 34.12H89.4057V36H88.4177V30.056H89.4057ZM94.8591 34.248C94.5738 34.2613 94.3338 34.2867 94.1391 34.324C93.9445 34.3587 93.7885 34.404 93.6711 34.46C93.5538 34.516 93.4698 34.5813 93.4191 34.656C93.3685 34.7307 93.3431 34.812 93.3431 34.9C93.3431 35.0733 93.3938 35.1973 93.4951 35.272C93.5991 35.3467 93.7338 35.384 93.8991 35.384C94.1018 35.384 94.2765 35.348 94.4231 35.276C94.5725 35.2013 94.7178 35.0893 94.8591 34.94V34.248ZM92.5951 32.468C93.0671 32.036 93.6351 31.82 94.2991 31.82C94.5391 31.82 94.7538 31.86 94.9431 31.94C95.1325 32.0173 95.2925 32.1267 95.4231 32.268C95.5538 32.4067 95.6525 32.5733 95.7191 32.768C95.7885 32.9627 95.8231 33.176 95.8231 33.408V36H95.3751C95.2818 36 95.2098 35.9867 95.1591 35.96C95.1085 35.9307 95.0685 35.8733 95.0391 35.788L94.9511 35.492C94.8471 35.5853 94.7458 35.668 94.6471 35.74C94.5485 35.8093 94.4458 35.868 94.3391 35.916C94.2325 35.964 94.1178 36 93.9951 36.024C93.8751 36.0507 93.7418 36.064 93.5951 36.064C93.4218 36.064 93.2618 36.0413 93.1151 35.996C92.9685 35.948 92.8418 35.8773 92.7351 35.784C92.6285 35.6907 92.5458 35.5747 92.4871 35.436C92.4285 35.2973 92.3991 35.136 92.3991 34.952C92.3991 34.848 92.4165 34.7453 92.4511 34.644C92.4858 34.54 92.5418 34.4413 92.6191 34.348C92.6991 34.2547 92.8018 34.1667 92.9271 34.084C93.0525 34.0013 93.2058 33.9293 93.3871 33.868C93.5711 33.8067 93.7845 33.7573 94.0271 33.72C94.2698 33.68 94.5471 33.656 94.8591 33.648V33.408C94.8591 33.1333 94.8005 32.9307 94.6831 32.8C94.5658 32.6667 94.3965 32.6 94.1751 32.6C94.0151 32.6 93.8818 32.6187 93.7751 32.656C93.6711 32.6933 93.5791 32.736 93.4991 32.784C93.4191 32.8293 93.3458 32.8707 93.2791 32.908C93.2151 32.9453 93.1431 32.964 93.0631 32.964C92.9938 32.964 92.9351 32.9467 92.8871 32.912C92.8391 32.8747 92.8005 32.832 92.7711 32.784L92.5951 32.468ZM100.867 34.248C100.582 34.2613 100.342 34.2867 100.147 34.324C99.9523 34.3587 99.7963 34.404 99.6789 34.46C99.5616 34.516 99.4776 34.5813 99.4269 34.656C99.3763 34.7307 99.3509 34.812 99.3509 34.9C99.3509 35.0733 99.4016 35.1973 99.5029 35.272C99.6069 35.3467 99.7416 35.384 99.9069 35.384C100.11 35.384 100.284 35.348 100.431 35.276C100.58 35.2013 100.726 35.0893 100.867 34.94V34.248ZM98.6029 32.468C99.0749 32.036 99.6429 31.82 100.307 31.82C100.547 31.82 100.762 31.86 100.951 31.94C101.14 32.0173 101.3 32.1267 101.431 32.268C101.562 32.4067 101.66 32.5733 101.727 32.768C101.796 32.9627 101.831 33.176 101.831 33.408V36H101.383C101.29 36 101.218 35.9867 101.167 35.96C101.116 35.9307 101.076 35.8733 101.047 35.788L100.959 35.492C100.855 35.5853 100.754 35.668 100.655 35.74C100.556 35.8093 100.454 35.868 100.347 35.916C100.24 35.964 100.126 36 100.003 36.024C99.8829 36.0507 99.7496 36.064 99.6029 36.064C99.4296 36.064 99.2696 36.0413 99.1229 35.996C98.9763 35.948 98.8496 35.8773 98.7429 35.784C98.6363 35.6907 98.5536 35.5747 98.4949 35.436C98.4363 35.2973 98.4069 35.136 98.4069 34.952C98.4069 34.848 98.4243 34.7453 98.4589 34.644C98.4936 34.54 98.5496 34.4413 98.6269 34.348C98.7069 34.2547 98.8096 34.1667 98.9349 34.084C99.0603 34.0013 99.2136 33.9293 99.3949 33.868C99.5789 33.8067 99.7923 33.7573 100.035 33.72C100.278 33.68 100.555 33.656 100.867 33.648V33.408C100.867 33.1333 100.808 32.9307 100.691 32.8C100.574 32.6667 100.404 32.6 100.183 32.6C100.023 32.6 99.8896 32.6187 99.7829 32.656C99.6789 32.6933 99.5869 32.736 99.5069 32.784C99.4269 32.8293 99.3536 32.8707 99.2869 32.908C99.2229 32.9453 99.1509 32.964 99.0709 32.964C99.0016 32.964 98.9429 32.9467 98.8949 32.912C98.8469 32.8747 98.8083 32.832 98.7789 32.784L98.6029 32.468ZM104.261 33.848C104.384 33.848 104.491 33.832 104.581 33.8C104.672 33.7653 104.747 33.7187 104.805 33.66C104.867 33.6013 104.912 33.5307 104.941 33.448C104.973 33.3653 104.989 33.2747 104.989 33.176C104.989 32.9733 104.928 32.8133 104.805 32.696C104.685 32.576 104.504 32.516 104.261 32.516C104.019 32.516 103.836 32.576 103.713 32.696C103.593 32.8133 103.533 32.9733 103.533 33.176C103.533 33.272 103.548 33.3613 103.577 33.444C103.609 33.5267 103.655 33.5987 103.713 33.66C103.775 33.7187 103.851 33.7653 103.941 33.8C104.035 33.832 104.141 33.848 104.261 33.848ZM105.377 36.184C105.377 36.104 105.353 36.0387 105.305 35.988C105.257 35.9373 105.192 35.8987 105.109 35.872C105.027 35.8427 104.929 35.8213 104.817 35.808C104.708 35.7947 104.591 35.7853 104.465 35.78C104.343 35.772 104.215 35.7653 104.081 35.76C103.951 35.7547 103.823 35.744 103.697 35.728C103.588 35.7893 103.499 35.8613 103.429 35.944C103.363 36.0267 103.329 36.1227 103.329 36.232C103.329 36.304 103.347 36.3707 103.381 36.432C103.419 36.496 103.476 36.5507 103.553 36.596C103.633 36.6413 103.736 36.676 103.861 36.7C103.987 36.7267 104.14 36.74 104.321 36.74C104.505 36.74 104.664 36.7253 104.797 36.696C104.931 36.6693 105.04 36.6307 105.125 36.58C105.213 36.532 105.277 36.4733 105.317 36.404C105.357 36.3373 105.377 36.264 105.377 36.184ZM106.361 32.036V32.404C106.361 32.5213 106.291 32.5933 106.149 32.62L105.781 32.688C105.837 32.8293 105.865 32.984 105.865 33.152C105.865 33.3547 105.824 33.5387 105.741 33.704C105.661 33.8667 105.549 34.0053 105.405 34.12C105.261 34.2347 105.091 34.324 104.893 34.388C104.699 34.4493 104.488 34.48 104.261 34.48C104.181 34.48 104.104 34.476 104.029 34.468C103.955 34.46 103.881 34.4493 103.809 34.436C103.681 34.5133 103.617 34.6 103.617 34.696C103.617 34.7787 103.655 34.84 103.729 34.88C103.807 34.9173 103.908 34.944 104.033 34.96C104.159 34.976 104.301 34.9867 104.461 34.992C104.621 34.9947 104.785 35.0027 104.953 35.016C105.121 35.0293 105.285 35.0533 105.445 35.088C105.605 35.12 105.748 35.172 105.873 35.244C105.999 35.316 106.099 35.4147 106.173 35.54C106.251 35.6627 106.289 35.8213 106.289 36.016C106.289 36.1973 106.244 36.3733 106.153 36.544C106.065 36.7147 105.936 36.8667 105.765 37C105.597 37.1333 105.389 37.24 105.141 37.32C104.896 37.4027 104.616 37.444 104.301 37.444C103.992 37.444 103.723 37.4133 103.493 37.352C103.264 37.2933 103.073 37.2133 102.921 37.112C102.769 37.0133 102.656 36.8987 102.581 36.768C102.507 36.6373 102.469 36.5013 102.469 36.36C102.469 36.168 102.527 36.008 102.641 35.88C102.759 35.7493 102.919 35.6453 103.121 35.568C103.012 35.512 102.925 35.4373 102.861 35.344C102.797 35.2507 102.765 35.128 102.765 34.976C102.765 34.9147 102.776 34.852 102.797 34.788C102.821 34.7213 102.855 34.656 102.897 34.592C102.943 34.528 102.999 34.468 103.065 34.412C103.132 34.3533 103.211 34.3013 103.301 34.256C103.093 34.144 102.929 33.9947 102.809 33.808C102.692 33.6213 102.633 33.4027 102.633 33.152C102.633 32.9493 102.673 32.7667 102.753 32.604C102.836 32.4387 102.949 32.2987 103.093 32.184C103.24 32.0667 103.412 31.9773 103.609 31.916C103.809 31.8547 104.027 31.824 104.261 31.824C104.437 31.824 104.603 31.8427 104.757 31.88C104.912 31.9147 105.053 31.9667 105.181 32.036H106.361ZM109.562 33.476C109.562 33.348 109.543 33.228 109.506 33.116C109.471 33.0013 109.418 32.9013 109.346 32.816C109.274 32.7307 109.182 32.664 109.07 32.616C108.96 32.5653 108.832 32.54 108.686 32.54C108.4 32.54 108.175 32.6213 108.01 32.784C107.847 32.9467 107.743 33.1773 107.698 33.476H109.562ZM107.678 34.072C107.694 34.2827 107.731 34.4653 107.79 34.62C107.848 34.772 107.926 34.8987 108.022 35C108.118 35.0987 108.231 35.1733 108.362 35.224C108.495 35.272 108.642 35.296 108.802 35.296C108.962 35.296 109.099 35.2773 109.214 35.24C109.331 35.2027 109.432 35.1613 109.518 35.116C109.606 35.0707 109.682 35.0293 109.746 34.992C109.812 34.9547 109.876 34.936 109.938 34.936C110.02 34.936 110.082 34.9667 110.122 35.028L110.406 35.388C110.296 35.516 110.174 35.624 110.038 35.712C109.902 35.7973 109.759 35.8667 109.61 35.92C109.463 35.9707 109.312 36.0067 109.158 36.028C109.006 36.0493 108.858 36.06 108.714 36.06C108.428 36.06 108.163 36.0133 107.918 35.92C107.672 35.824 107.459 35.684 107.278 35.5C107.096 35.3133 106.954 35.084 106.85 34.812C106.746 34.5373 106.694 34.22 106.694 33.86C106.694 33.58 106.739 33.3173 106.83 33.072C106.92 32.824 107.05 32.6093 107.218 32.428C107.388 32.244 107.595 32.0987 107.838 31.992C108.083 31.8853 108.359 31.832 108.666 31.832C108.924 31.832 109.163 31.8733 109.382 31.956C109.6 32.0387 109.788 32.16 109.946 32.32C110.103 32.4773 110.226 32.672 110.314 32.904C110.404 33.1333 110.45 33.396 110.45 33.692C110.45 33.8413 110.434 33.9427 110.402 33.996C110.37 34.0467 110.308 34.072 110.218 34.072H107.678ZM112.115 32.4C112.198 32.3173 112.284 32.2413 112.375 32.172C112.468 32.1 112.566 32.04 112.667 31.992C112.771 31.9413 112.882 31.9027 112.999 31.876C113.116 31.8467 113.244 31.832 113.383 31.832C113.607 31.832 113.806 31.8707 113.979 31.948C114.152 32.0227 114.296 32.1293 114.411 32.268C114.528 32.404 114.616 32.568 114.675 32.76C114.736 32.9493 114.767 33.1587 114.767 33.388V36H113.779V33.388C113.779 33.1373 113.722 32.944 113.607 32.808C113.492 32.6693 113.318 32.6 113.083 32.6C112.912 32.6 112.752 32.6387 112.603 32.716C112.454 32.7933 112.312 32.8987 112.179 33.032V36H111.191V31.896H111.795C111.923 31.896 112.007 31.956 112.047 32.076L112.115 32.4ZM118.647 32.764C118.617 32.8013 118.588 32.8307 118.559 32.852C118.532 32.8733 118.492 32.884 118.439 32.884C118.388 32.884 118.339 32.8693 118.291 32.84C118.243 32.808 118.185 32.7733 118.119 32.736C118.052 32.696 117.972 32.6613 117.879 32.632C117.788 32.6 117.675 32.584 117.539 32.584C117.365 32.584 117.213 32.616 117.083 32.68C116.952 32.7413 116.843 32.8307 116.755 32.948C116.669 33.0653 116.605 33.208 116.563 33.376C116.52 33.5413 116.499 33.7293 116.499 33.94C116.499 34.1587 116.521 34.3533 116.567 34.524C116.615 34.6947 116.683 34.8387 116.771 34.956C116.859 35.0707 116.965 35.1587 117.091 35.22C117.216 35.2787 117.357 35.308 117.515 35.308C117.672 35.308 117.799 35.2893 117.895 35.252C117.993 35.212 118.076 35.1693 118.143 35.124C118.209 35.076 118.267 35.0333 118.315 34.996C118.365 34.956 118.421 34.936 118.483 34.936C118.563 34.936 118.623 34.9667 118.663 35.028L118.947 35.388C118.837 35.516 118.719 35.624 118.591 35.712C118.463 35.7973 118.329 35.8667 118.191 35.92C118.055 35.9707 117.913 36.0067 117.767 36.028C117.623 36.0493 117.479 36.06 117.335 36.06C117.081 36.06 116.843 36.0133 116.619 35.92C116.395 35.824 116.199 35.6853 116.031 35.504C115.863 35.3227 115.729 35.1013 115.631 34.84C115.535 34.576 115.487 34.276 115.487 33.94C115.487 33.6387 115.529 33.36 115.615 33.104C115.703 32.8453 115.831 32.6227 115.999 32.436C116.167 32.2467 116.375 32.0987 116.623 31.992C116.871 31.8853 117.156 31.832 117.479 31.832C117.785 31.832 118.053 31.8813 118.283 31.98C118.515 32.0787 118.723 32.22 118.907 32.404L118.647 32.764ZM120.59 31.896V36H119.598V31.896H120.59ZM120.726 30.7C120.726 30.7853 120.709 30.8653 120.674 30.94C120.639 31.0147 120.593 31.08 120.534 31.136C120.478 31.192 120.411 31.2373 120.334 31.272C120.257 31.304 120.174 31.32 120.086 31.32C120.001 31.32 119.919 31.304 119.842 31.272C119.767 31.2373 119.702 31.192 119.646 31.136C119.59 31.08 119.545 31.0147 119.51 30.94C119.478 30.8653 119.462 30.7853 119.462 30.7C119.462 30.612 119.478 30.5293 119.51 30.452C119.545 30.3747 119.59 30.308 119.646 30.252C119.702 30.196 119.767 30.152 119.842 30.12C119.919 30.0853 120.001 30.068 120.086 30.068C120.174 30.068 120.257 30.0853 120.334 30.12C120.411 30.152 120.478 30.196 120.534 30.252C120.593 30.308 120.639 30.3747 120.674 30.452C120.709 30.5293 120.726 30.612 120.726 30.7ZM122.621 31.896V36.14C122.621 36.3187 122.597 36.4867 122.549 36.644C122.504 36.8013 122.429 36.9387 122.325 37.056C122.224 37.176 122.089 37.2693 121.921 37.336C121.756 37.4053 121.553 37.44 121.313 37.44C121.22 37.44 121.133 37.4333 121.053 37.42C120.973 37.4093 120.891 37.3907 120.805 37.364L120.841 36.832C120.849 36.7787 120.871 36.744 120.905 36.728C120.94 36.7147 121.007 36.708 121.105 36.708C121.204 36.708 121.287 36.6973 121.353 36.676C121.423 36.6573 121.477 36.6253 121.517 36.58C121.557 36.5373 121.585 36.48 121.601 36.408C121.62 36.336 121.629 36.2467 121.629 36.14V31.896H122.621ZM122.757 30.7C122.757 30.7853 122.74 30.8653 122.705 30.94C122.671 31.0147 122.624 31.08 122.565 31.136C122.509 31.192 122.441 31.2373 122.361 31.272C122.284 31.304 122.201 31.32 122.113 31.32C122.028 31.32 121.948 31.304 121.873 31.272C121.799 31.2373 121.733 31.192 121.677 31.136C121.621 31.08 121.576 31.0147 121.541 30.94C121.509 30.8653 121.493 30.7853 121.493 30.7C121.493 30.612 121.509 30.5293 121.541 30.452C121.576 30.3747 121.621 30.308 121.677 30.252C121.733 30.196 121.799 30.152 121.873 30.12C121.948 30.0853 122.028 30.068 122.113 30.068C122.201 30.068 122.284 30.0853 122.361 30.12C122.441 30.152 122.509 30.196 122.565 30.252C122.624 30.308 122.671 30.3747 122.705 30.452C122.74 30.5293 122.757 30.612 122.757 30.7ZM125.797 34.248C125.511 34.2613 125.271 34.2867 125.077 34.324C124.882 34.3587 124.726 34.404 124.609 34.46C124.491 34.516 124.407 34.5813 124.357 34.656C124.306 34.7307 124.281 34.812 124.281 34.9C124.281 35.0733 124.331 35.1973 124.433 35.272C124.537 35.3467 124.671 35.384 124.837 35.384C125.039 35.384 125.214 35.348 125.361 35.276C125.51 35.2013 125.655 35.0893 125.797 34.94V34.248ZM123.533 32.468C124.005 32.036 124.573 31.82 125.237 31.82C125.477 31.82 125.691 31.86 125.881 31.94C126.07 32.0173 126.23 32.1267 126.361 32.268C126.491 32.4067 126.59 32.5733 126.657 32.768C126.726 32.9627 126.761 33.176 126.761 33.408V36H126.313C126.219 36 126.147 35.9867 126.097 35.96C126.046 35.9307 126.006 35.8733 125.977 35.788L125.889 35.492C125.785 35.5853 125.683 35.668 125.585 35.74C125.486 35.8093 125.383 35.868 125.277 35.916C125.17 35.964 125.055 36 124.933 36.024C124.813 36.0507 124.679 36.064 124.533 36.064C124.359 36.064 124.199 36.0413 124.053 35.996C123.906 35.948 123.779 35.8773 123.673 35.784C123.566 35.6907 123.483 35.5747 123.425 35.436C123.366 35.2973 123.337 35.136 123.337 34.952C123.337 34.848 123.354 34.7453 123.389 34.644C123.423 34.54 123.479 34.4413 123.557 34.348C123.637 34.2547 123.739 34.1667 123.865 34.084C123.99 34.0013 124.143 33.9293 124.325 33.868C124.509 33.8067 124.722 33.7573 124.965 33.72C125.207 33.68 125.485 33.656 125.797 33.648V33.408C125.797 33.1333 125.738 32.9307 125.621 32.8C125.503 32.6667 125.334 32.6 125.113 32.6C124.953 32.6 124.819 32.6187 124.713 32.656C124.609 32.6933 124.517 32.736 124.437 32.784C124.357 32.8293 124.283 32.8707 124.217 32.908C124.153 32.9453 124.081 32.964 124.001 32.964C123.931 32.964 123.873 32.9467 123.825 32.912C123.777 32.8747 123.738 32.832 123.709 32.784L123.533 32.468Z" fill="black"/>
</svg>
